<svg width="26" height="26" viewBox="0 0 26 26" fill="none" xmlns="http://www.w3.org/2000/svg">
<path d="M23.7563 21.9302L21.8951 18.8297C21.0371 17.3987 20.5831 15.7607 20.5831 14.0912V11.3753C20.5831 7.19474 17.1804 3.79199 12.9998 3.79199C8.81926 3.79199 5.41651 7.19474 5.41651 11.3753V14.0912C5.41651 15.7607 4.96257 17.3987 4.10457 18.8297L2.24339 21.9302C2.14264 22.0971 2.14045 22.3062 2.23582 22.4752C2.33226 22.6452 2.51314 22.7504 2.70814 22.7504H23.2915C23.4865 22.7504 23.6674 22.6453 23.7638 22.4752C23.8591 22.3061 23.857 22.0971 23.7563 21.9302ZM3.66476 21.667L5.03301 19.3866C5.99282 17.7876 6.49982 15.9567 6.49982 14.0912V11.3753C6.49982 7.79056 9.41507 4.87531 12.9998 4.87531C16.5846 4.87531 19.4998 7.79056 19.4998 11.3753V14.0912C19.4998 15.9567 20.0068 17.7876 20.9656 19.3866L22.3349 21.667H3.66476Z" fill="#585F68"/>
<path d="M13.0002 0C11.8052 0 10.8335 0.97175 10.8335 2.16668V4.33337C10.8335 4.63232 11.0762 4.875 11.3752 4.875C11.6742 4.875 11.9169 4.63232 11.9169 4.33332V2.16668C11.9169 1.56868 12.4022 1.08337 13.0002 1.08337C13.5982 1.08337 14.0835 1.56868 14.0835 2.16668V4.33337C14.0835 4.63232 14.3262 4.875 14.6252 4.875C14.9242 4.875 15.1669 4.63232 15.1669 4.33332V2.16668C15.1669 0.97175 14.1951 0 13.0002 0Z" fill="#585F68"/>
<path d="M15.3442 21.9339C15.1914 21.6761 14.861 21.5916 14.6021 21.74C14.3432 21.8917 14.2566 22.2242 14.4082 22.4821C14.549 22.7215 14.6259 23.0086 14.6259 23.2913C14.6259 24.1872 13.8969 24.9163 13.0009 24.9163C12.105 24.9163 11.3759 24.1872 11.3759 23.2913C11.3759 23.0086 11.4529 22.7215 11.5937 22.4821C11.7443 22.2231 11.6576 21.8916 11.3998 21.74C11.1387 21.5916 10.8093 21.6761 10.6577 21.9339C10.4183 22.3434 10.2915 22.8125 10.2915 23.2914C10.2916 24.7852 11.5059 25.9997 12.9999 25.9997C14.4938 25.9997 15.7082 24.7852 15.7104 23.2914C15.7104 22.8125 15.5836 22.3434 15.3442 21.9339Z" fill="#585F68"/>
</svg>
